<svg width="14" height="10" viewBox="0 0 14 10" fill="none" xmlns="http://www.w3.org/2000/svg">
<path d="M13.8093 5.47779L9.64316 9.80212C9.38897 10.066 8.97673 10.066 8.72254 9.80212C8.4683 9.53823 8.4683 9.11044 8.72254 8.84655L11.7774 5.67568H0.650963C0.291475 5.67568 0 5.37314 0 5.00001C0 4.62693 0.291475 4.32433 0.650963 4.32433H11.7774L8.72264 1.15346C8.4684 0.889569 8.4684 0.461784 8.72264 0.197892C8.84971 0.0660534 9.01636 0 9.18295 0C9.34955 0 9.51614 0.0660534 9.64326 0.197892L13.8093 4.52222C14.0636 4.78611 14.0636 5.2139 13.8093 5.47779Z" fill="#0EAA6E"/>
</svg>
