<svg width="50" height="50" viewBox="0 0 50 50" fill="none" xmlns="http://www.w3.org/2000/svg">
<path d="M49.5625 10.1001C49.2934 9.95596 48.9658 9.96925 48.71 10.1359L26.9059 24.4218C25.7476 25.1801 24.2509 25.1801 23.0925 24.4209L1.28916 10.1359C1.03418 9.96925 0.706641 9.95596 0.436621 10.1001C0.168359 10.2459 0 10.5276 0 10.8334V39.1667C0 39.6275 0.37334 40 0.833301 40H49.1666C49.6266 40 49.9999 39.6275 49.9991 39.1667V10.8334C49.9991 10.5276 49.8316 10.2459 49.5625 10.1001ZM48.3333 38.3334H1.6667V12.3759L22.1792 25.815C23.8925 26.94 26.1067 26.9375 27.82 25.8159L48.3334 12.3759V38.3334H48.3333Z" fill="#0EAA6E"/>
<path d="M49.1667 10H0.833301C0.37334 10 0 10.3725 0 10.8333V39.1666C0 39.6274 0.37334 39.9999 0.833301 39.9999H49.1666C49.6266 39.9999 49.9999 39.6274 49.9999 39.1666V10.8333C50 10.3725 49.6267 10 49.1667 10ZM48.3333 38.3333H1.6667V11.6667H48.3334V38.3333H48.3333Z" fill="#0EAA6E"/>
<path d="M20.3242 22.6067L1.28916 10.1359C1.03418 9.96925 0.706641 9.95596 0.436621 10.1001C0.168359 10.2459 0 10.5276 0 10.8334V39.1667C0 39.4892 0.1875 39.7842 0.47998 39.9209C0.59248 39.9742 0.713281 40.0001 0.833301 40.0001C1.02412 40.0001 1.21416 39.9343 1.3666 39.8067L20.4016 23.9442C20.6041 23.7751 20.7148 23.5192 20.6999 23.2559C20.6842 22.9926 20.545 22.7518 20.3242 22.6067ZM1.6667 37.3885V12.3759L18.47 23.3851L1.6667 37.3885Z" fill="#0EAA6E"/>
<path d="M49.5634 10.1008C49.2943 9.9567 48.9668 9.96998 48.7109 10.1367L29.6759 22.6075C29.4551 22.7525 29.316 22.9933 29.3001 23.2566C29.285 23.52 29.3951 23.7757 29.5984 23.945L48.6334 39.8075C48.7859 39.9341 48.9758 40 49.1667 40C49.2867 40 49.4075 39.9741 49.52 39.9216C49.8125 39.785 50 39.4908 50 39.1674V10.8341C50.0001 10.5283 49.8326 10.2466 49.5634 10.1008ZM48.3334 37.3883L31.53 23.3849L48.3334 12.3757V37.3883Z" fill="#0EAA6E"/>
</svg>
