<svg width="34" height="51" viewBox="0 0 34 51" fill="none" xmlns="http://www.w3.org/2000/svg">
<path d="M10.0777 43.5715H23.121C23.7207 43.5715 24.2079 43.0849 24.2079 42.4823C24.2079 41.8797 23.7207 41.3931 23.121 41.3931H10.0777C9.47794 41.3931 8.99072 41.8797 8.99072 42.4823C8.99072 43.0849 9.47794 43.5715 10.0777 43.5715Z" fill="#0EAA6E"/>
<path d="M28.1645 50.1072C31.1611 50.1072 33.5993 47.6637 33.5993 44.6607V5.44643C33.5993 2.44345 31.1611 0 28.1645 0H6.42544C3.42888 0 0.990662 2.44345 0.990662 5.44643V44.6607C0.990662 47.6637 3.42888 50.1072 6.42544 50.1072H28.1645ZM3.16457 5.44643C3.16457 3.64496 4.62782 2.17857 6.42544 2.17857H28.1645C29.9621 2.17857 31.4254 3.64496 31.4254 5.44643V8.71429H3.16457V5.44643ZM3.16457 44.6607V10.8929H31.4254V44.6607C31.4254 46.4622 29.9621 47.9286 28.1645 47.9286H6.42544C4.62782 47.9286 3.16457 46.4622 3.16457 44.6607Z" fill="#0EAA6E"/>
</svg>
