<svg width="50" height="50" viewBox="0 0 50 50" fill="none" xmlns="http://www.w3.org/2000/svg">
<path d="M25 0C14.8153 0 6.52975 8.28553 6.52975 18.4702C6.52975 21.8231 8.03345 25.4292 8.09646 25.5813C8.58212 26.734 9.5404 28.5246 10.2314 29.5741L22.8955 48.7625C23.4137 49.5491 24.1808 50 25 50C25.8192 50 26.5863 49.5491 27.1045 48.7636L39.7697 29.5741C40.4617 28.5246 41.4189 26.734 41.9046 25.5813C41.9676 25.4302 43.4702 21.8242 43.4702 18.4702C43.4702 8.28553 35.1847 0 25 0ZM39.9011 24.7382C39.4676 25.7714 38.5756 27.437 37.9552 28.3779L25.2901 47.5674C25.0402 47.9465 24.9609 47.9465 24.711 47.5674L12.0458 28.3779C11.4255 27.437 10.5334 25.7703 10.0999 24.7371C10.0815 24.6925 8.70272 21.3733 8.70272 18.4702C8.70272 9.48392 16.0137 2.17297 25 2.17297C33.9863 2.17297 41.2972 9.48392 41.2972 18.4702C41.2972 21.3777 39.9152 24.7056 39.9011 24.7382Z" fill="#0EAA6E"/>
<path d="M24.9999 8.69287C19.6077 8.69287 15.2216 13.0801 15.2216 18.4712C15.2216 23.8624 19.6077 28.2496 24.9999 28.2496C30.3922 28.2496 34.7783 23.8624 34.7783 18.4712C34.7783 13.0801 30.3922 8.69287 24.9999 8.69287ZM24.9999 26.0766C20.8072 26.0766 17.3946 22.6651 17.3946 18.4712C17.3946 14.2774 20.8072 10.8658 24.9999 10.8658C29.1927 10.8658 32.6053 14.2774 32.6053 18.4712C32.6053 22.6651 29.1927 26.0766 24.9999 26.0766Z" fill="#0EAA6E"/>
</svg>
