<svg width="18" height="18" viewBox="0 0 18 18" fill="none" xmlns="http://www.w3.org/2000/svg">
<path d="M17.7739 16.6831L14.9394 13.8495C14.9108 13.8209 14.874 13.8083 14.8424 13.785C17.6024 10.4882 17.4379 5.55744 14.3402 2.46043C12.753 0.873863 10.6429 0 8.39864 0C6.15422 0 4.04413 0.873863 2.4572 2.46043C-0.819067 5.73595 -0.819067 11.0656 2.4572 14.3407C4.04413 15.9278 6.15422 16.8017 8.39864 16.8017C10.3914 16.8017 12.276 16.1097 13.7847 14.8446C13.8076 14.8759 13.82 14.9122 13.8483 14.9404L16.6829 17.774C16.8335 17.9246 17.031 18 17.2285 18C17.4259 18 17.6236 17.9247 17.774 17.774C18.0753 17.4726 18.0753 16.9844 17.7739 16.6831ZM8.39864 15.2588C6.5663 15.2588 4.8438 14.5451 3.54826 13.2499C0.87378 10.576 0.87378 6.22572 3.54826 3.55134C4.8438 2.25599 6.56641 1.54287 8.39864 1.54287C10.2307 1.54287 11.9535 2.25599 13.249 3.55124C15.9235 6.22562 15.9235 10.5759 13.249 13.2498C11.9533 14.545 10.2308 15.2588 8.39864 15.2588Z" fill="#0EAA6E"/>
</svg>
