<?xml version="1.0" encoding="UTF-8"?>
<svg xmlns="http://www.w3.org/2000/svg" xmlns:xlink="http://www.w3.org/1999/xlink" width="16pt" height="18pt" viewBox="0 0 16 18" version="1.1">
<g>
<path style=" stroke:none;fill-rule:nonzero;fill:rgb(0%,0%,0%);fill-opacity:1;" d="M 8 9 C 10.523438 9 12.570312 6.984375 12.570312 4.5 C 12.570312 2.015625 10.523438 0 8 0 C 5.476562 0 3.429688 2.015625 3.429688 4.5 C 3.429688 6.984375 5.476562 9 8 9 Z M 11.199219 10.125 L 10.605469 10.125 C 9.8125 10.484375 8.929688 10.6875 8 10.6875 C 7.070312 10.6875 6.191406 10.484375 5.394531 10.125 L 4.800781 10.125 C 2.148438 10.125 0 12.242188 0 14.851562 L 0 16.3125 C 0 17.242188 0.769531 18 1.714844 18 L 14.285156 18 C 15.230469 18 16 17.242188 16 16.3125 L 16 14.851562 C 16 12.242188 13.851562 10.125 11.199219 10.125 Z M 11.199219 10.125 "/>
</g>
</svg>
